<svg width="317" height="153" viewBox="0 0 317 153" fill="none" xmlns="http://www.w3.org/2000/svg">
<path d="M213.58 13.2387C213.58 13.2387 194.792 15.0953 189.848 34.2809C189.024 37.4786 194.011 37.7124 194.66 35.8451C198.945 23.5235 208.242 20.8941 208.242 20.8941C208.242 20.8941 211.228 36.4779 221.263 42.2084C231.299 47.939 240.671 46.6181 240.671 46.6181C240.671 46.6181 242.127 49.1609 235.063 58.7524C233.747 63.2908 237.872 63.6762 239.195 62.1932C248.569 51.6826 247.114 39.9501 247.114 39.9501C247.114 39.9501 236.598 44.2242 224.105 36.7956C211.611 29.367 213.58 13.2387 213.58 13.2387Z" fill="#F5F351" stroke="#ECFF1A"/>
<path d="M208.5 62.5C174 -13.5 97 40.5 109 82C53.5 96 82.5 153 109 153H208.5C296.5 153 272.5 47 208.5 62.5Z" fill="#007AFF"/>
<path d="M290.357 99C282.333 72.4793 290.357 80.787 266 72.4793C278.476 66.9147 282.607 67.0506 284.669 64.8144C286.634 62.6849 286.723 58.4041 290.357 45C294.271 58.4075 294.366 62.611 296.299 64.6992C298.327 66.8909 302.38 66.7524 315 72.4793C290.357 80.4675 298.38 72.4793 290.357 99Z" fill="#F5F5F5"/>
<path d="M290.357 99C282.333 72.4793 290.357 80.787 266 72.4793C278.476 66.9147 282.607 67.0506 284.669 64.8144C286.634 62.6849 286.723 58.4041 290.357 45C294.271 58.4075 294.366 62.611 296.299 64.6992C298.327 66.8909 302.38 66.7524 315 72.4793C290.357 80.4675 298.38 72.4793 290.357 99Z" fill="#F5F5F5"/>
<path d="M290.357 99C282.333 72.4793 290.357 80.787 266 72.4793C278.476 66.9147 282.607 67.0506 284.669 64.8144C286.634 62.6849 286.723 58.4041 290.357 45C294.271 58.4075 294.366 62.611 296.299 64.6992C298.327 66.8909 302.38 66.7524 315 72.4793C290.357 80.4675 298.38 72.4793 290.357 99Z" fill="#F5F5F5"/>
<path d="M266 72.4793C290.357 80.787 282.333 72.4793 290.357 99C298.38 72.4793 290.357 80.4675 315 72.4793C302.38 66.7524 298.327 66.8909 296.299 64.6992C294.366 62.611 294.271 58.4075 290.357 45C286.723 58.4041 286.634 62.6849 284.669 64.8144C282.607 67.0506 278.476 66.9147 266 72.4793Z" stroke="#C1EFC6"/>
<path d="M25.8597 136C18 112.917 25.8597 120.148 2 112.917C14.2212 108.074 18.2678 108.192 20.2884 106.246C22.2127 104.392 22.2997 100.666 25.8597 89C29.6945 100.669 29.7872 104.328 31.6804 106.146C33.6675 108.053 37.638 107.933 50 112.917C25.8597 119.87 33.7193 112.917 25.8597 136Z" fill="#F5F5F5"/>
<path d="M25.8597 136C18 112.917 25.8597 120.148 2 112.917C14.2212 108.074 18.2678 108.192 20.2884 106.246C22.2127 104.392 22.2997 100.666 25.8597 89C29.6945 100.669 29.7872 104.328 31.6804 106.146C33.6675 108.053 37.638 107.933 50 112.917C25.8597 119.87 33.7193 112.917 25.8597 136Z" fill="#F5F5F5"/>
<path d="M25.8597 136C18 112.917 25.8597 120.148 2 112.917C14.2212 108.074 18.2678 108.192 20.2884 106.246C22.2127 104.392 22.2997 100.666 25.8597 89C29.6945 100.669 29.7872 104.328 31.6804 106.146C33.6675 108.053 37.638 107.933 50 112.917C25.8597 119.87 33.7193 112.917 25.8597 136Z" fill="#F5F5F5"/>
<path d="M2 112.917C25.8597 120.148 18 112.917 25.8597 136C33.7193 112.917 25.8597 119.87 50 112.917C37.638 107.933 33.6675 108.053 31.6804 106.146C29.7872 104.328 29.6945 100.669 25.8597 89C22.2997 100.666 22.2127 104.392 20.2884 106.246C18.2678 108.192 14.2212 108.074 2 112.917Z" stroke="#C1EFC6"/>
<path d="M62.605 57.0277C69.8262 31.4477 72.4517 42.8568 55.3381 21.3806C69.4129 24.7405 73.0037 27.3923 76.0423 26.9238C78.9361 26.4776 81.3292 23.2016 91.7995 15.0123C88.0233 27.857 85.8347 31.1859 86.4201 34.0019C87.0345 36.9574 90.7047 39.3479 98.8023 51.5818C72.6244 42.6082 84.0601 41.3381 62.605 57.0277Z" fill="#F5F5F5"/>
<path d="M62.605 57.0277C69.8262 31.4477 72.4517 42.8568 55.3381 21.3806C69.4129 24.7405 73.0037 27.3923 76.0423 26.9238C78.9361 26.4776 81.3292 23.2016 91.7995 15.0123C88.0233 27.857 85.8347 31.1859 86.4201 34.0019C87.0345 36.9574 90.7047 39.3479 98.8023 51.5818C72.6244 42.6082 84.0601 41.3381 62.605 57.0277Z" fill="#F5F5F5"/>
<path d="M62.605 57.0277C69.8262 31.4477 72.4517 42.8568 55.3381 21.3806C69.4129 24.7405 73.0037 27.3923 76.0423 26.9238C78.9361 26.4776 81.3292 23.2016 91.7995 15.0123C88.0233 27.857 85.8347 31.1859 86.4201 34.0019C87.0345 36.9574 90.7047 39.3479 98.8023 51.5818C72.6244 42.6082 84.0601 41.3381 62.605 57.0277Z" fill="#F5F5F5"/>
<path d="M55.3381 21.3806C72.4517 42.8568 69.8262 31.4477 62.605 57.0277C84.0601 41.3381 72.6244 42.6082 98.8023 51.5818C90.7047 39.3479 87.0345 36.9574 86.4201 34.0019C85.8347 31.1859 88.0233 27.857 91.7995 15.0123C81.3292 23.2016 78.9361 26.4776 76.0423 26.9238C73.0037 27.3923 69.4129 24.7405 55.3381 21.3806Z" stroke="#C1EFC6"/>
</svg>
